.
 
http://www.scenetime.com    -  Hottest private tracker on the net. !!!

Sign up will close shortly !!  Join now 

        Seed back for speed


...................................NFO:.................................................[img]http://img26.imageshack.us/img26/4856/piratesofthecaribbeanone.jpg[/img]


[color=blue][size=4][b]Pirates.of.the.Caribbean.On.St.Tid.2011.R3.DVDRip.Glitchfree.XVID.AC3.HQ.Hive-CM8[/b][/size][/color]


[b]Thx Hive

CM8 Doing It Right The First Time :D


Source: R3 DVD-R
not that crappy R4 with low bitrate and no quality


Encode:
well that copy protection of the dvd took me a while to remove, now everything is perfect.
Added some brightness, sharpness and fixed rgb colours.
got very nice with high quality and its glitchfree.
enjoy


Video: 720x304 @bitrate 1900 2pass
Audio: English AC3 5.1 @384
Sample: yes included[/b]


[url]http://www.imdb.com/title/tt1298650/[/url]


General
Complete name                    : Pirates.of.the.Caribbean.On.St.Tid.2011.R3.DVDRip.Glitchfree.XVID.AC3.HQ.Hive-CM8.avi
Format                           : AVI
Format/Info                      : Audio Video Interleave
Format profile                   : OpenDML
Format settings                  : rec
File size                        : 2.18 GiB
Duration                         : 2h 16mn
Overall bit rate                 : 2 289 Kbps
Writing application              : AVI-Mux GUI 1.17.7, Aug  8 2006  20:59:17

Video
ID                               : 0
Format                           : MPEG-4 Visual
Format profile                   : Advanced Simple@L5
Format settings, BVOP            : 1
Format settings, QPel            : Yes
Format settings, GMC             : No warppoints
Format settings, Matrix          : Default (H.263)
Muxing mode                      : Packed bitstream
Codec ID                         : XVID
Codec ID/Hint                    : XviD
Duration                         : 2h 16mn
Bit rate                         : 1 900 Kbps
Width                            : 720 pixels
Height                           : 304 pixels
Display aspect ratio             : 2.35:1
Frame rate                       : 23.976 fps
Color space                      : YUV
Chroma subsampling               : 4:2:0
Bit depth                        : 8 bits
Scan type                        : Progressive
Compression mode                 : Lossy
Bits/(Pixel*Frame)               : 0.362
Stream size                      : 1.81 GiB (83%)
Writing library                  : XviD 1.2.1 (UTC 2008-12-04)

Audio
ID                               : 1
Format                           : AC-3
Format/Info                      : Audio Coding 3
Mode extension                   : CM (complete main)
Codec ID                         : 2000
Duration                         : 2h 16mn
Bit rate mode                    : Constant
Bit rate                         : 384 Kbps
Channel(s)                       : 6 channels
Channel positions                : Front: L C R, Side: L R, LFE
Sampling rate                    : 48.0 KHz
Bit depth                        : 16 bits
Compression mode                 : Lossy
Stream size                      : 375 MiB (17%)
Alignment                        : Aligned on interleaves
Interleave, duration             : 64 ms (1.53 video frames)
Interleave, preload duration     : 192 ms


Plot:
Jack Sparrow and Barbossa embark on a quest to find the elusive fountain of youth,
only to discover that Blackbeard and his daughter are after it too.


Cast:
Johnny Depp      ...    Jack Sparrow
Penlope Cruz    ...    Angelica Malon
Geoffrey Rush    ...    Barbossa
Ian McShane      ...    Blackbeard


[img]http://img714.imageshack.us/img714/9421/27651102.png[/img]
[img]http://img832.imageshack.us/img832/9571/pipij.png[/img]
[img]http://img839.imageshack.us/img839/2505/pipipi.png[/img]
[img]http://img842.imageshack.us/img842/3062/pipippii.png[/img]
[img]http://img818.imageshack.us/img818/2967/pipippipii.png[/img]
[img]http://img705.imageshack.us/img705/3107/pipippipipii.png[/img]
[img]http://img824.imageshack.us/img824/2360/pipippipipipii.png[/img]
[img]http://img199.imageshack.us/img199/2835/pipippipipipipii.png[/img]
[img]http://img6.imageshack.us/img6/4912/pipipppiipipipipii.png[/img]
[img]http://img851.imageshack.us/img851/2928/pipipppipiipipipipii.png[/img]
[img]http://img707.imageshack.us/img707/9093/pipipppipiipipipipipii.png[/img]
[img]http://img198.imageshack.us/img198/7655/pipipppipiipipipipipipi.png[/img]
[img]http://img821.imageshack.us/img821/4630/pipippppiipiipipipipipi.png[/img]



Links to HiRes Cover + Label:
[url]http://img220.imageshack.us/img220/2761/frontbackcover.jpg[/url]
[url]http://img7.imageshack.us/img7/5755/labelfn.jpg[/url]


Greetz

ViSiON,SiC,SANTi,3LT0N,YanKeeS,MAGNET,THC,T0XiC,LKRG,FANTASIA-PLAY,FANTASIA-M,BHRG,IMAGiNE,WBZ,FLAWL3SS,
D2U,NOVA,Vik,Rapeseed,SAFC,goldadvance,MEMORY100,scumbag,Hero5,KaN1vE,Unevano,Pinnz,Wayne,cedrict wink,
Mr Hive and all P2P groups
Great Work Guys :D

FYS

CM8@hushmail.com